<mxfile host="Electron" modified="2024-02-04T23:24:22.306Z" agent="Mozilla/5.0 (X11; Linux x86_64) AppleWebKit/537.36 (KHTML, like Gecko) draw.io/23.0.2 Chrome/120.0.6099.109 Electron/28.1.0 Safari/537.36" etag="6bhE34wakZMkJtKG0C0t" version="23.0.2" type="device">
  <diagram name="script_main Flow Chart" id="fo18u6Ch1KVScq3Fo-Wy">
    <mxGraphModel dx="1130" dy="1213" grid="1" gridSize="10" guides="1" tooltips="1" connect="1" arrows="1" fold="1" page="1" pageScale="1" pageWidth="800" pageHeight="350" background="#999999" math="0" shadow="0">
      <root>
        <object label="" description="Flow chart for &quot;script_main&quot; function of soh-monitor.sh." rev="1.0" id="0">
          <mxCell />
        </object>
        <object label="Title Block" id="1">
          <mxCell style="locked=1;" parent="0" />
        </object>
        <mxCell id="h7L3MlKvrl_dhOmhB3lf-10" value="Prepared with: draw.io v23.0.2" style="strokeWidth=1;shadow=0;dashed=0;align=center;html=1;shape=mxgraph.mockup.text.textBox;fontColor=#666666;align=left;fontSize=17;spacingLeft=4;spacingTop=-3;whiteSpace=wrap;strokeColor=#333333;mainText=;fillColor=none;fontFamily=Open Sans;movable=1;resizable=1;rotatable=1;deletable=1;editable=1;locked=0;connectable=1;" parent="1" vertex="1">
          <mxGeometry x="220" y="300" width="280" height="30" as="geometry" />
        </mxCell>
        <object label="&lt;div align=&quot;left&quot;&gt;Sheet %pagenumber%/%pagecount%&lt;/div&gt;" placeholders="1" id="h7L3MlKvrl_dhOmhB3lf-12">
          <mxCell style="strokeWidth=1;shadow=0;dashed=0;align=left;html=1;shape=mxgraph.mockup.text.textBox;fontColor=#666666;align=left;fontSize=17;spacingLeft=4;spacingTop=-3;whiteSpace=wrap;strokeColor=#333333;mainText=;fillColor=none;fontFamily=Open Sans;movable=1;resizable=1;rotatable=1;deletable=1;editable=1;locked=0;connectable=1;" parent="1" vertex="1">
            <mxGeometry x="60" y="300" width="160" height="30" as="geometry" />
          </mxCell>
        </object>
        <object label="Date: &lt;font style=&quot;font-size: 17px;&quot;&gt;%date{ddd mmm dd yyyy HH:MM:ss}%&lt;/font&gt;" placeholders="1" id="h7L3MlKvrl_dhOmhB3lf-13">
          <mxCell style="strokeWidth=1;shadow=0;dashed=0;align=center;html=1;shape=mxgraph.mockup.text.textBox;fontColor=#666666;align=left;fontSize=17;spacingLeft=4;spacingTop=-3;whiteSpace=wrap;strokeColor=#333333;mainText=;fillColor=none;fontFamily=Open Sans;movable=1;resizable=1;rotatable=1;deletable=1;editable=1;locked=0;connectable=1;" parent="1" vertex="1">
            <mxGeometry x="500" y="300" width="280" height="30" as="geometry" />
          </mxCell>
        </object>
        <object label="&lt;b&gt;Title: %page%&lt;/b&gt;" placeholders="1" id="h7L3MlKvrl_dhOmhB3lf-14">
          <mxCell style="strokeWidth=1;shadow=0;dashed=0;align=center;html=1;shape=mxgraph.mockup.text.textBox;fontColor=#666666;align=left;fontSize=17;spacingLeft=4;spacingTop=-3;whiteSpace=wrap;strokeColor=#333333;mainText=;fillColor=none;fontFamily=Open Sans;movable=1;resizable=1;rotatable=1;deletable=1;editable=1;locked=0;connectable=1;" parent="1" vertex="1">
            <mxGeometry x="60" y="240" width="720" height="30" as="geometry" />
          </mxCell>
        </object>
        <object label="Filename: %filename%" placeholders="1" id="h7L3MlKvrl_dhOmhB3lf-15">
          <mxCell style="strokeWidth=1;shadow=0;dashed=0;align=center;html=1;shape=mxgraph.mockup.text.textBox;fontColor=#666666;align=left;fontSize=17;spacingLeft=4;spacingTop=-3;whiteSpace=wrap;strokeColor=#333333;mainText=;fillColor=none;fontFamily=Open Sans;movable=1;resizable=1;rotatable=1;deletable=1;editable=1;locked=0;connectable=1;" parent="1" vertex="1">
            <mxGeometry x="60" y="270" width="550" height="30" as="geometry" />
          </mxCell>
        </object>
        <object label="&lt;div align=&quot;left&quot;&gt;%description%&lt;/div&gt;" placeholders="1" id="h7L3MlKvrl_dhOmhB3lf-16">
          <mxCell style="strokeWidth=1;shadow=0;dashed=0;html=1;shape=mxgraph.mockup.text.textBox;fontColor=#666666;align=left;verticalAlign=top;fontSize=12;spacingLeft=4;spacingTop=-3;whiteSpace=wrap;strokeColor=#333333;mainText=;fillColor=none;fontFamily=Open Sans;movable=1;resizable=1;rotatable=1;deletable=1;editable=1;locked=0;connectable=1;" parent="1" vertex="1">
            <mxGeometry x="60" y="200" width="720" height="40" as="geometry" />
          </mxCell>
        </object>
        <object label="&lt;b&gt;Rev: %rev%&lt;br&gt;&lt;/b&gt;" placeholders="1" id="EyKvBmyPNv_MzgSUc5b6-1">
          <mxCell style="strokeWidth=1;shadow=0;dashed=0;align=center;html=1;shape=mxgraph.mockup.text.textBox;fontColor=#666666;align=left;fontSize=17;spacingLeft=4;spacingTop=-3;whiteSpace=wrap;strokeColor=#333333;mainText=;fillColor=none;fontFamily=Open Sans;movable=1;resizable=1;rotatable=1;deletable=1;editable=1;locked=0;connectable=1;" parent="1" vertex="1">
            <mxGeometry x="610" y="270" width="170" height="30" as="geometry" />
          </mxCell>
        </object>
        <object label="Drawing Frame" id="2jkEU8j2_UPUL1MGRyPS-1">
          <mxCell style="locked=1;" parent="0" />
        </object>
        <mxCell id="2jkEU8j2_UPUL1MGRyPS-2" value="" style="rounded=0;whiteSpace=wrap;html=1;fillColor=none;strokeWidth=3;movable=1;resizable=1;rotatable=1;deletable=1;editable=1;locked=0;connectable=1;" parent="2jkEU8j2_UPUL1MGRyPS-1" vertex="1">
          <mxGeometry x="60" y="-210" width="720" height="540" as="geometry" />
        </mxCell>
        <object label="Document" id="NbdiYjX3MhI7OpqD2NvG-1">
          <mxCell parent="0" />
        </object>
        <mxCell id="yw6FAlG5G-Jae9AWYVl--2" value="[TIMEOUT [ACTION_COUNT [MAX_ERRORS]]]" style="edgeStyle=orthogonalEdgeStyle;rounded=0;orthogonalLoop=1;jettySize=auto;html=1;fontFamily=Open Sans;" parent="NbdiYjX3MhI7OpqD2NvG-1" source="fzffGFe7_WvlfE_VzDE6-1" target="smkoKUX5MMubbUwZfC6I-2" edge="1">
          <mxGeometry x="0.2" relative="1" as="geometry">
            <mxPoint x="160" y="-90" as="targetPoint" />
            <mxPoint as="offset" />
          </mxGeometry>
        </mxCell>
        <mxCell id="fzffGFe7_WvlfE_VzDE6-1" value="S" style="strokeWidth=2;html=1;shape=mxgraph.flowchart.start_2;whiteSpace=wrap;fillColor=#E6E6E6;fontFamily=Open Sans;" parent="NbdiYjX3MhI7OpqD2NvG-1" vertex="1">
          <mxGeometry x="225" y="-180.00000000000006" width="40" height="40" as="geometry" />
        </mxCell>
        <mxCell id="smkoKUX5MMubbUwZfC6I-5" style="edgeStyle=orthogonalEdgeStyle;rounded=0;orthogonalLoop=1;jettySize=auto;html=1;" parent="NbdiYjX3MhI7OpqD2NvG-1" source="isz0wImtCZ7TI1DU8Cka-1" target="smkoKUX5MMubbUwZfC6I-4" edge="1">
          <mxGeometry relative="1" as="geometry" />
        </mxCell>
        <mxCell id="smkoKUX5MMubbUwZfC6I-2" value="Update global parameters from command line options" style="rounded=1;whiteSpace=wrap;html=1;absoluteArcSize=1;arcSize=14;strokeWidth=2;fillColor=#E6E6E6;fontFamily=Open Sans;" parent="NbdiYjX3MhI7OpqD2NvG-1" vertex="1">
          <mxGeometry x="190" y="-110" width="110" height="70" as="geometry" />
        </mxCell>
        <mxCell id="smkoKUX5MMubbUwZfC6I-7" value="Yes" style="edgeStyle=orthogonalEdgeStyle;rounded=0;orthogonalLoop=1;jettySize=auto;html=1;fontFamily=Open Sans;" parent="NbdiYjX3MhI7OpqD2NvG-1" source="smkoKUX5MMubbUwZfC6I-4" target="h4xeG-PqXKgAKbSKeLx_-9" edge="1">
          <mxGeometry x="-0.1429" relative="1" as="geometry">
            <mxPoint as="offset" />
          </mxGeometry>
        </mxCell>
        <mxCell id="smkoKUX5MMubbUwZfC6I-13" value="No" style="edgeStyle=orthogonalEdgeStyle;rounded=0;orthogonalLoop=1;jettySize=auto;html=1;fontFamily=Open Sans;exitX=0.5;exitY=1;exitDx=0;exitDy=0;exitPerimeter=0;entryX=0;entryY=0.5;entryDx=0;entryDy=0;entryPerimeter=0;" parent="NbdiYjX3MhI7OpqD2NvG-1" source="smkoKUX5MMubbUwZfC6I-4" target="smkoKUX5MMubbUwZfC6I-17" edge="1">
          <mxGeometry x="-0.871" relative="1" as="geometry">
            <mxPoint as="offset" />
            <mxPoint x="350" y="355" as="targetPoint" />
          </mxGeometry>
        </mxCell>
        <mxCell id="smkoKUX5MMubbUwZfC6I-4" value="valid?" style="strokeWidth=2;html=1;shape=mxgraph.flowchart.decision;whiteSpace=wrap;fillColor=#E6E6E6;fontFamily=Open Sans;verticalAlign=middle;" parent="NbdiYjX3MhI7OpqD2NvG-1" vertex="1">
          <mxGeometry x="480" y="-5.684341886080802e-14" width="80" height="80" as="geometry" />
        </mxCell>
        <mxCell id="smkoKUX5MMubbUwZfC6I-17" value="Return&amp;nbsp;" style="strokeWidth=2;html=1;shape=mxgraph.flowchart.terminator;whiteSpace=wrap;fillColor=#E6E6E6;fontFamily=Open Sans;" parent="NbdiYjX3MhI7OpqD2NvG-1" vertex="1">
          <mxGeometry x="625" y="130" width="70" height="40" as="geometry" />
        </mxCell>
        <mxCell id="h4xeG-PqXKgAKbSKeLx_-2" value="" style="edgeStyle=orthogonalEdgeStyle;rounded=0;orthogonalLoop=1;jettySize=auto;html=1;exitX=1;exitY=0.5;exitDx=0;exitDy=0;entryX=0;entryY=0.5;entryDx=0;entryDy=0;" edge="1" parent="NbdiYjX3MhI7OpqD2NvG-1" source="smkoKUX5MMubbUwZfC6I-2" target="h4xeG-PqXKgAKbSKeLx_-1">
          <mxGeometry relative="1" as="geometry">
            <mxPoint x="170" y="-85" as="sourcePoint" />
            <mxPoint x="350" y="125" as="targetPoint" />
          </mxGeometry>
        </mxCell>
        <mxCell id="h4xeG-PqXKgAKbSKeLx_-1" value="Set sigint_trap as interrupt handler" style="rounded=1;whiteSpace=wrap;html=1;absoluteArcSize=1;arcSize=14;strokeWidth=2;fillColor=#E6E6E6;fontFamily=Open Sans;" vertex="1" parent="NbdiYjX3MhI7OpqD2NvG-1">
          <mxGeometry x="465" y="-180" width="110" height="60" as="geometry" />
        </mxCell>
        <mxCell id="h4xeG-PqXKgAKbSKeLx_-3" value="" style="edgeStyle=orthogonalEdgeStyle;rounded=0;orthogonalLoop=1;jettySize=auto;html=1;" edge="1" parent="NbdiYjX3MhI7OpqD2NvG-1" source="h4xeG-PqXKgAKbSKeLx_-1" target="isz0wImtCZ7TI1DU8Cka-1">
          <mxGeometry relative="1" as="geometry">
            <mxPoint x="310" y="-85" as="sourcePoint" />
            <mxPoint x="350" y="125" as="targetPoint" />
          </mxGeometry>
        </mxCell>
        <mxCell id="isz0wImtCZ7TI1DU8Cka-1" value="Get PID for&lt;br&gt;node-red.service from systemctl" style="verticalLabelPosition=middle;verticalAlign=middle;html=1;shape=process;whiteSpace=wrap;rounded=1;size=0.14;arcSize=6;fillColor=#E6E6E6;fontFamily=Open Sans;labelPosition=center;align=center;strokeWidth=2;" parent="NbdiYjX3MhI7OpqD2NvG-1" vertex="1">
          <mxGeometry x="450" y="-90" width="140" height="60" as="geometry" />
        </mxCell>
        <mxCell id="h4xeG-PqXKgAKbSKeLx_-4" value="1" style="text;html=1;strokeColor=none;fillColor=none;align=center;verticalAlign=middle;whiteSpace=wrap;rounded=0;fontFamily=Open Sans;fontSize=11;labelBackgroundColor=default;" vertex="1" parent="NbdiYjX3MhI7OpqD2NvG-1">
          <mxGeometry x="590" y="140" width="30" height="20" as="geometry" />
        </mxCell>
        <mxCell id="h4xeG-PqXKgAKbSKeLx_-12" value="pipe" style="edgeStyle=orthogonalEdgeStyle;rounded=0;orthogonalLoop=1;jettySize=auto;html=1;fontFamily=Open Sans;" edge="1" parent="NbdiYjX3MhI7OpqD2NvG-1" source="h4xeG-PqXKgAKbSKeLx_-9" target="h4xeG-PqXKgAKbSKeLx_-11">
          <mxGeometry x="-0.2" relative="1" as="geometry">
            <mxPoint as="offset" />
          </mxGeometry>
        </mxCell>
        <mxCell id="h4xeG-PqXKgAKbSKeLx_-9" value="journalctl follow cat output from node-red unit" style="verticalLabelPosition=middle;verticalAlign=middle;html=1;shape=process;whiteSpace=wrap;rounded=1;size=0.14;arcSize=6;fillColor=#E6E6E6;fontFamily=Open Sans;labelPosition=center;align=center;strokeWidth=2;" vertex="1" parent="NbdiYjX3MhI7OpqD2NvG-1">
          <mxGeometry x="290" y="10" width="140" height="60" as="geometry" />
        </mxCell>
        <mxCell id="h4xeG-PqXKgAKbSKeLx_-14" style="edgeStyle=orthogonalEdgeStyle;rounded=0;orthogonalLoop=1;jettySize=auto;html=1;" edge="1" parent="NbdiYjX3MhI7OpqD2NvG-1" source="h4xeG-PqXKgAKbSKeLx_-11" target="h4xeG-PqXKgAKbSKeLx_-13">
          <mxGeometry relative="1" as="geometry" />
        </mxCell>
        <mxCell id="h4xeG-PqXKgAKbSKeLx_-11" value="monitor" style="verticalLabelPosition=middle;verticalAlign=middle;html=1;shape=process;whiteSpace=wrap;rounded=1;size=0.14;arcSize=6;fillColor=#E6E6E6;fontFamily=Open Sans;labelPosition=center;align=center;strokeWidth=2;" vertex="1" parent="NbdiYjX3MhI7OpqD2NvG-1">
          <mxGeometry x="150" y="10" width="90" height="60" as="geometry" />
        </mxCell>
        <mxCell id="h4xeG-PqXKgAKbSKeLx_-16" style="edgeStyle=orthogonalEdgeStyle;rounded=0;orthogonalLoop=1;jettySize=auto;html=1;" edge="1" parent="NbdiYjX3MhI7OpqD2NvG-1" source="h4xeG-PqXKgAKbSKeLx_-13" target="h4xeG-PqXKgAKbSKeLx_-15">
          <mxGeometry relative="1" as="geometry" />
        </mxCell>
        <mxCell id="h4xeG-PqXKgAKbSKeLx_-13" value="Update ERROR_COUNT" style="rounded=1;whiteSpace=wrap;html=1;absoluteArcSize=1;arcSize=14;strokeWidth=2;fillColor=#E6E6E6;fontFamily=Open Sans;" vertex="1" parent="NbdiYjX3MhI7OpqD2NvG-1">
          <mxGeometry x="140" y="100" width="110" height="60" as="geometry" />
        </mxCell>
        <mxCell id="h4xeG-PqXKgAKbSKeLx_-19" style="edgeStyle=orthogonalEdgeStyle;rounded=0;orthogonalLoop=1;jettySize=auto;html=1;entryX=0;entryY=0.5;entryDx=0;entryDy=0;entryPerimeter=0;jumpStyle=arc;jumpSize=10;" edge="1" parent="NbdiYjX3MhI7OpqD2NvG-1" source="h4xeG-PqXKgAKbSKeLx_-15" target="h4xeG-PqXKgAKbSKeLx_-17">
          <mxGeometry relative="1" as="geometry">
            <Array as="points">
              <mxPoint x="590" y="130" />
              <mxPoint x="590" y="30" />
            </Array>
          </mxGeometry>
        </mxCell>
        <mxCell id="h4xeG-PqXKgAKbSKeLx_-15" value="sleep for RELOAD_TIME seconds" style="verticalLabelPosition=middle;verticalAlign=middle;html=1;shape=process;whiteSpace=wrap;rounded=1;size=0.14;arcSize=6;fillColor=#E6E6E6;fontFamily=Open Sans;labelPosition=center;align=center;strokeWidth=2;" vertex="1" parent="NbdiYjX3MhI7OpqD2NvG-1">
          <mxGeometry x="280" y="100" width="120" height="60" as="geometry" />
        </mxCell>
        <mxCell id="h4xeG-PqXKgAKbSKeLx_-18" style="edgeStyle=orthogonalEdgeStyle;rounded=0;orthogonalLoop=1;jettySize=auto;html=1;exitX=0.5;exitY=0;exitDx=0;exitDy=0;exitPerimeter=0;entryX=1;entryY=0.5;entryDx=0;entryDy=0;" edge="1" parent="NbdiYjX3MhI7OpqD2NvG-1" source="h4xeG-PqXKgAKbSKeLx_-17" target="h4xeG-PqXKgAKbSKeLx_-1">
          <mxGeometry relative="1" as="geometry" />
        </mxCell>
        <mxCell id="h4xeG-PqXKgAKbSKeLx_-20" style="edgeStyle=orthogonalEdgeStyle;rounded=0;orthogonalLoop=1;jettySize=auto;html=1;" edge="1" parent="NbdiYjX3MhI7OpqD2NvG-1" source="h4xeG-PqXKgAKbSKeLx_-17" target="smkoKUX5MMubbUwZfC6I-17">
          <mxGeometry relative="1" as="geometry" />
        </mxCell>
        <mxCell id="h4xeG-PqXKgAKbSKeLx_-17" value="Loop while ERROR_COUNT &amp;lt; MAX_ERRORS" style="strokeWidth=2;html=1;shape=mxgraph.flowchart.loop_limit;whiteSpace=wrap;fillColor=#E6E6E6;fontFamily=Open Sans;" vertex="1" parent="NbdiYjX3MhI7OpqD2NvG-1">
          <mxGeometry x="610" width="100" height="60" as="geometry" />
        </mxCell>
      </root>
    </mxGraphModel>
  </diagram>
</mxfile>
